<?xml version="1.0" encoding="UTF-8"?> <svg xmlns="http://www.w3.org/2000/svg" id="Logo_Finergreen" data-name="Logo Finergreen" viewBox="0 0 536.03 77.88"><defs><style>.cls-1{fill:#1f4354;}.cls-2{fill:#c0ab77;}</style></defs><title>logo_finergreen_horizontal</title><polygon class="cls-1" points="104.37 57 104.37 21.1 139.5 21.1 139.5 26.11 110.12 26.11 110.12 37.33 134.97 37.33 134.97 42.39 110.12 42.39 110.12 57 104.37 57"></polygon><rect class="cls-1" x="147.17" y="21.1" width="5.74" height="35.9"></rect><polygon class="cls-1" points="198.5 57 169.91 27.94 169.91 57 164.38 57 164.38 21.1 170.89 21.1 198.29 49.07 198.29 21.1 203.87 21.1 203.87 57 198.5 57"></polygon><polygon class="cls-1" points="215.34 57 215.34 21.1 250.57 21.1 250.57 26.06 221.03 26.06 221.03 36.28 245.89 36.28 245.89 41.24 221.03 41.24 221.03 52.04 251.09 52.04 251.09 57 215.34 57"></polygon><path class="cls-1" d="M292.48,57,281.2,43.81H265.49V57h-5.78V21.1h24.5c8.93,0,14.47,4.35,14.47,11.35,0,5.67-3.68,9.66-10.09,11l-.84.17L299.51,57ZM265.48,39h18.4c7.43,0,9-3.5,9-6.44s-1.55-6.44-9-6.44h-18.4Z"></path><path class="cls-1" d="M327.83,58.1c-14.21,0-22.69-7.12-22.69-19S313.58,20,327.71,20c10.06,0,15.75,4.25,18.35,6.94l-4.69,3.35C338,26.62,333.71,25,327.77,25,317,25,311,30,311,39.09s6.07,14.09,17.1,14.09c7,0,11.89-2,14.42-5.88l.08-4.61H327.4V37.8h20.72V49.16C344.6,54.68,337,58.1,327.83,58.1Z"></path><path class="cls-1" d="M389.77,57l-11.28-13.2H362.78V57H357V21.1h24.5c8.92,0,14.47,4.35,14.47,11.35,0,5.67-3.68,9.66-10.09,11l-.84.17L396.8,57ZM362.71,38.94H381.1c7.43,0,9-3.5,9-6.44s-1.56-6.44-9-6.44H362.71Z"></path><polygon class="cls-1" points="405.29 57 405.29 21.1 440.52 21.1 440.52 26.06 410.98 26.06 410.98 36.28 435.84 36.28 435.84 41.24 410.98 41.24 410.98 52.04 441.04 52.04 441.04 57 405.29 57"></polygon><polygon class="cls-1" points="449.7 57 449.7 21.1 484.93 21.1 484.93 26.06 455.39 26.06 455.39 36.28 480.25 36.28 480.25 41.24 455.39 41.24 455.39 52.04 485.45 52.04 485.45 57 449.7 57"></polygon><polygon class="cls-1" points="528.23 57 499.64 27.94 499.64 57 494.1 57 494.1 21.1 500.62 21.1 528.01 49.07 528.01 21.1 533.59 21.1 533.59 57 528.23 57"></polygon><path class="cls-2" d="M77,1.53S2.43,2.72,2.43,45.88,51.81,80.16,66.59,57.2,77,1.53,77,1.53Z"></path><path class="cls-1" d="M68,13c-9.43-2.6-17.55,5.08-20.2,7.67-8.53,8.35-18,27.47-23.43,34.43C19.63,61.26,15,65.67,9.45,67.37c16,.76,25.05-11.87,32.89-25.18,13.38-.83,14.49-8.4,14.49-8.4a28.05,28.05,0,0,1-6.31,1c-1.24.09-2.79.19-4.1.32C52.71,24.34,58.81,14.59,68,13Z"></path></svg> 