<?xml version="1.0" encoding="UTF-8"?> <svg xmlns="http://www.w3.org/2000/svg" width="18" height="12" viewBox="0 0 18 12"><path fill="#C0AB77" d="M14.6,7 L1,7 C0.4,7 0,6.6 0,6 C0,5.4 0.4,5 1,5 L14.6,5 L11.3,1.7 C10.9,1.3 10.9,0.7 11.3,0.3 C11.7,-0.1 12.3,-0.1 12.7,0.3 L17.5259259,5.12592593 C17.8222222,5.28888889 18,5.6 18,6 C18,6.4 17.8222222,6.71111111 17.5259259,6.87407407 L12.7,11.7 C12.5,11.9 12.3,12 12,12 C11.7,12 11.5,11.9 11.3,11.7 C10.9,11.3 10.9,10.7 11.3,10.3 L14.6,7 Z"></path></svg> 