<?xml version="1.0" encoding="UTF-8"?> <svg xmlns="http://www.w3.org/2000/svg" width="459" height="498" viewBox="0 0 459 498"><g fill="none" fill-rule="evenodd" stroke="#1F4354" stroke-linecap="round" stroke-linejoin="round" stroke-width="4" transform="translate(2 2)"><path d="M261.836207 109.289742C259.482119 111.526587 256.1003 112.912779 252.385509 112.912779 249.767251 112.912779 247.223699 112.213489 245.096364 110.932049 242.32158 113.530426 238.476014 115 234.356526 115 227.046037 115 220.980643 110.392495 219.884959 104.26217 212.990688 104.96146 207 100.18357 207 94.2342799 207 89.7226166 210.49694 85.7363083 215.413288 84.5223124 217.55841 79.9503043 222.681088 76.9259635 228.412085 76.9259635 231.87345 76.9259635 235.192519 78.0370183 237.746743 80.0177485 240.795449 75.7084178 246.277426 73 252.175621 73L252.175621 73C255.671066 73 258.922716 73.9242112 261.622416 75.5056842M129.95287 169.916237C145.381466 156.216161 166.601504 144 193.218611 144 222.906572 144 246.254468 159.361019 262.348892 175.031895"></path><path d="M135.227073 177.165107C149.245526 165.538069 168.727323 155 193.293855 155 224.140951 155 247.418669 171.796376 261.873534 186.478086M171 193L261.743046 193M148.733398 193L142.625488 193M147 193L147 169M159 182L159 163M171 192L171 159M183 192L183 156M195 192L195 155M206 192L206 156M218 192L218 160M230 192L230 165M242 192L242 170"></path><polyline points="261.743 210 261.743 51.248 305.733 51.248 305.733 158.107"></polyline><path d="M271.430367 63.7671L277.8617 63.7671M271.430367 84.0351L277.8617 84.0351M271.430367 103.801L277.8617 103.801M271.430367 124.02855L277.8617 124.02855M271.430367 144.7948L277.8617 144.7948M288.6986 124.02855L294.8376 124.02855M288.6986 144.7948L294.8376 144.7948M271.430367 164.06245L275.779516 164.06245M288.6986 63.7671L294.8376 63.7671M288.6986 84.0351L294.8376 84.0351M288.6986 103.801L294.8376 103.801"></path><polyline points="382.66 223.205 382.66 118.823 305.582 118.823 305.582 157.711 275.78 157.711 275.78 210.917"></polyline><path d="M366 135L354 135M366 155L354 155M366 175L354 175M366 195L354 195M338 135L326 135M338 155L326 155M338 175L326 175M338 195L326 195M299 168L287 168M299 188L287 188M454.746385 266.299C454.746385 391.695 353.093462 493.347923 227.701 493.347923 102.305 493.347923.655615385 391.695.655615385 266.299"></path><path d="M426 377.530324C426 377.530324 399.704855 387.785469 394.775623 369.895701 389.849938 352.002387 346.256382 310.602379 321.15631 348.431526 296.056237 386.260672 309.783615 400.68596 295.226424 419.348765 280.669233 438.015115 249.52642 438.727869 238.362951 457.766554 227.192391 476.805239 240.997785 493 240.997785 493M58.4862353 417.508603C58.4862353 417.508603 82.5038824 427.028853 77.3897647 404.937353 72.2791765 382.845853 45.6956471 370.059197 51.5756471 360.856759 57.4556471 351.650791 96.0427059 367.735634 103.073294 354.832447 110.100353 341.932791 103.073294 311.454572 103.073294 311.454572"></path><path d="M176.483128 211.422612C193.034519 210.491975 210.280115 210 228 210 253.497393 210 278.01302 211.018678 300.891553 212.897191M333.117125 216.240268C405.563346 225.428273 455 243.816726 455 265 455 295.376361 353.367397 320 228 320 102.629066 320 1 295.376361 1 265 1 254.516608 13.1074145 244.717713 34.1195433 236.37972M40.9000598 81C27.0493015 81 15.7753457 71.2823195 15.7753457 59.3405344L15.7753457 59.3123366C10.4653552 57.2856168 7 52.7316657 7 47.58556 7 40.4127345 13.8240842 34.5934053 22.0734068 34.7555429 24.0673189 27.4135304 31.6804378 22.0841387 40.5908435 22.0841387 44.4755956 22.0841387 48.2537214 23.1098351 51.4169687 25.0061399 55.5362987 21.1677089 61.2514692 19 67.3647113 19 78.2299328 19 87.2291938 25.8027288 88.8605764 34.8507106 99.1002569 33.8214895 108 40.8744741 108 49.6510517 108 56.3127914 102.807298 62.1990904 95.5033959 63.9931779 92.3223775 70.7395111 84.7092585 75.2018192 76.1969244 75.2018192 71.0539818 75.2018192 66.1314002 73.5628198 62.3319492 70.6408186 57.8074392 76.9994315 49.6647429 81 40.9000598 81z"></path><path d="M102.871696,274.251866 C104.111359,263.276208 96.2286425,253.372201 85.2537719,252.128946 C74.2789014,250.885692 64.3721021,258.772476 63.1289371,269.748134 C61.8857722,280.723792 69.7719906,290.627799 80.7468612,291.871054 C91.7182298,293.114308 101.628531,285.227524 102.871696,274.251866 Z"></path><path d="M86.9706389 273.006349C87.2522014 270.538114 85.4769842 268.310181 83.0081619 268.028685 80.5393395 267.750623 78.3108754 269.525417 78.0293129 271.993651 77.7477504 274.461886 79.5264013 276.689819 81.9952237 276.971315 84.464046 277.249377 86.6925101 275.474583 86.9706389 273.006349zM118.970686 277.007886C119.252248 274.538894 117.473598 272.310276 115.008209 272.028694 112.539387 271.750546 110.310922 273.525886 110.02936 275.994878 109.747797 278.463871 111.523015 280.692489 113.995271 280.970637 116.464093 281.252219 118.692557 279.476879 118.970686 277.007886zM167.871696 282.251513C169.111359 271.276029 161.228643 261.372179 150.253772 260.128944 139.278901 258.88571 129.372102 266.772369 128.128937 277.747853 126.885772 288.723336 134.771991 298.627187 145.746861 299.870421 156.71823 301.117158 166.628531 293.226997 167.871696 282.251513zM106 249L87 268"></path><polyline points="96 238.966 103.996 239.998 112 241.034"></polyline><path d="M112,271 L104,240"></path><polyline points="129 240 139.397 241.167 148 280"></polyline><path d="M117 272L141 248M83 268L115 272M114 281L82 277M410.987252 191.094122L411.39582 191.094122C411.39582 184.965028 416.369697 180 422.501776 180 428.633856 180 433.60418 184.965028 433.60418 191.094122L434.016301 191.094122C441.736468 191.094122 448 197.35098 448 205.062921 448 212.77841 441.736468 219.031719 434.016301 219.031719 434.016301 219.031719 432.186625 228 422.498224 228 412.813375 228 410.987252 219.031719 410.987252 219.031719 403.263532 219.031719 397 212.77841 397 205.062921 397 197.35098 403.263532 191.094122 410.987252 191.094122zM422.3922 259.659874L422.3922 197.402768M434.48072 201.547967L422.48912 209.8053M408.32712 205.95524L422.48912 219.448853M112.523939 164.805239C105.426297 148.663809 97.6140484 136.142852 91.7627217 136.142852 83.4625814 136.142852 73.3273949 155.10986 65.4657351 176.449703"></path><path d="M145.57191,200.713217 C139.460946,181.885275 129.442047,163.159448 118.11731,163.159448 C99.50466,163.159448 84.41361,213.761352 84.41361,232.236686"></path><polyline points="77.849 149.84 81.571 156.196 89.827 145.44 97.536 163.637 97.536 145.44 105.149 149.84"></polyline><path d="M92.06856,126.60245 L92.06856,116.39995 C92.06856,116.39995 96.15816,113.48445 99.15696,115.54945 C102.15216,117.61445 106.14816,116.76395 106.39656,116.15845 C106.64856,115.54945 106.39656,124.17345 106.39656,124.17345"></path><path d="M92 136L92 125.617938C92 125.617938 95.9959799 122.651126 98.9261307 124.752469 101.852764 126.853813 105.757286 125.988344 106 125.372188M74 211.269478C74 195.95429 61.4612494 154 45.9982169 154 30.5351844 154 18 195.95429 18 211.269478 18 226.584667 30.5351844 239 45.9982169 239 61.4612494 239 74 226.584667 74 211.269478zM45.91205 259.866981L45.91205 192.125267M59.02388 206.9867L45.96668 215.977367M30.5112 211.78272L46.3656 226.98192M177 217.710776C177 208.160302 169.164126 182 159.498209 182 149.835874 182 142 208.160302 142 217.710776 142 227.26125 149.835874 235 159.498209 235 169.164126 235 177 227.26125 177 217.710776zM159.6572 248.143338L159.6572 205.805646M167.5595 214.908867L159.6565 220.5042M150.066 218.0406L160.116333 227.6766M445 272C445 262.908788 424.017918 238 398.136701 238 389.322352 238 381.076604 240.888966 374.034225 245.058225"></path><polygon points="333 229 317 220.96 317 202 333 210.037"></polygon><polygon points="317 220.961 301 229 301 210.036 317 202"></polygon><polygon points="333 243 302 243 302 229.246 317.514 221 333 229.246"></polygon><polygon points="313 243 321 243 321 232 313 232"></polygon><polygon points="374 260 358 251.96 358 233 374 241.037"></polygon><polygon points="359 251.961 343 260 343 241.039 359 233"></polygon><polygon points="374 274 343 274 343 260.246 358.518 252 374 260.246"></polygon><polygon points="355 274 363 274 363 263 355 263"></polygon><path d="M188 52.6970711C188 52.6970711 198.863352 53.9087866 201.932355 59 204.489269 54.1531381 214 51 214 51M137 78.6970711C137 78.6970711 147.863352 79.9087866 150.928824 85 153.489269 80.1531381 163 77 163 77M318 1.6977815C318 1.6977815 328.863352 2.91000419 331.932355 8 334.489269 3.15110925 344 0 344 0M177 213L248.706971 223.985062C248.706971 223.985062 258.135557 225.087442 258.164087 233.149259 258.20303 243.792689 248.706971 242.824144 248.706971 242.824144L202.43765 242.824144C202.43765 242.824144 195.207292 242.024654 195.06169 249.294025 194.91964 256.566918 200.839585 257.003643 200.839585 257.003643 217.577797 259.890198 230.131457 262.055114 238.500563 263.498392"></path><path d="M243.908968 264.223188L244.874805 264.223188C244.874805 257.472857 256.574127 252 271.005287 252 285.432923 252 297.12872 257.472857 297.12872 264.223188L298.105132 264.223188C316.265693 264.223188 331 271.115856 331 279.609815 331 288.11089 316.265693 295 298.105132 295L243.908968 295C225.737832 295 211 288.11089 211 279.609815 211 271.115856 225.737832 264.223188 243.908968 264.223188zM265.640367 266.63545C267.239033 268.16145 269.831367 268.16145 271.430033 266.63545M266.02035 266.63545C264.49435 265.10945 262.01985 265.10945 260.49385 266.63545M238.661167 278.27505C240.259833 279.80105 242.852167 279.80105 244.450833 278.27505M238.99475 277.77505C237.46875 276.24905 234.99425 276.24905 233.46825 277.77505M277.3638 282.33665C278.966133 283.86265 281.558467 283.86265 283.153467 282.33665M277.7109 281.83665C276.1849 280.31065 273.7104 280.31065 272.1879 281.83665M305.403033 277.2028C307.005367 278.7288 309.594033 278.7288 311.1927 277.2028M305.74835 277.2028C304.22235 275.6768 301.74785 275.6768 300.22185 277.2028"></path></g></svg> 