<?xml version="1.0" encoding="UTF-8"?> <svg xmlns="http://www.w3.org/2000/svg" width="75" height="75" viewBox="0 0 75 75"><g fill="none" fill-rule="evenodd" stroke="#C0AB77" stroke-width="2" transform="translate(1 1)"><path d="M58.718,36.3564 C58.718,48.7064 48.706,58.7184 36.356,58.7184 C24.008,58.7184 13.996,48.7064 13.996,36.3564 C13.996,24.0064 24.008,13.9944 36.356,13.9944 C48.706,13.9944 58.718,24.0064 58.718,36.3564 Z"></path><path d="M65.3078,36.3564 C65.3078,52.3464 52.3478,65.3084 36.3558,65.3084 C20.3658,65.3084 7.4058,52.3464 7.4058,36.3564 C7.4058,20.3664 20.3658,7.4044 36.3558,7.4044 C52.3478,7.4044 65.3078,20.3664 65.3078,36.3564 Z"></path><path d="M72.2142,36.3564 C72.2142,56.1604 56.1602,72.2144 36.3562,72.2144 C16.5542,72.2144 0.5002,56.1604 0.5002,36.3564 C0.5002,16.5544 16.5542,0.5004 36.3562,0.5004 C56.1602,0.5004 72.2142,16.5544 72.2142,36.3564 Z"></path><path d="M52.1692,36.3564 C52.1692,45.0904 45.0892,52.1684 36.3572,52.1684 C27.6252,52.1684 20.5432,45.0904 20.5432,36.3564 C20.5432,27.6244 27.6252,20.5444 36.3572,20.5444 C45.0892,20.5444 52.1692,27.6244 52.1692,36.3564 Z"></path><path d="M46.0852,36.3564 C46.0852,41.7304 41.7292,46.0864 36.3572,46.0864 C30.9832,46.0864 26.6272,41.7304 26.6272,36.3564 C26.6272,30.9824 30.9832,26.6284 36.3572,26.6284 C41.7292,26.6284 46.0852,30.9824 46.0852,36.3564 Z"></path><path d="M40.6614,36.3564 C40.6614,38.7344 38.7334,40.6604 36.3574,40.6604 C33.9794,40.6604 32.0514,38.7344 32.0514,36.3564 C32.0514,33.9804 33.9794,32.0524 36.3574,32.0524 C38.7334,32.0524 40.6614,33.9804 40.6614,36.3564 Z"></path></g></svg> 