<?xml version="1.0" encoding="UTF-8"?> <svg xmlns="http://www.w3.org/2000/svg" width="100" height="66" viewBox="0 0 100 66"><g fill="none" fill-rule="evenodd" stroke="#C0AB77" stroke-width="2" transform="translate(1 1)"><path d="M66.8444,35.2044 C66.8444,40.8044 58.2444,45.3444 47.6384,45.3444 C37.0324,45.3444 28.4324,40.8044 28.4324,35.2044 C28.4324,29.6044 37.0324,25.0644 47.6384,25.0644 C58.2444,25.0644 66.8444,29.6044 66.8444,35.2044 Z"></path><path d="M66.8444,39.4876 C66.8444,45.0876 58.2444,49.6276 47.6384,49.6276 C37.0324,49.6276 28.4324,45.0876 28.4324,39.4876 C28.4324,33.8876 37.0324,29.3476 47.6384,29.3476 C58.2444,29.3476 66.8444,33.8876 66.8444,39.4876 Z"></path><path d="M66.8444,27.2054 C66.8444,32.8054 58.2444,37.3454 47.6384,37.3454 C37.0324,37.3454 28.4324,32.8054 28.4324,27.2054 C28.4324,21.6054 37.0324,17.0654 47.6384,17.0654 C58.2444,17.0654 66.8444,21.6054 66.8444,27.2054 Z"></path><path d="M66.8444,31.4876 C66.8444,37.0876 58.2444,41.6276 47.6384,41.6276 C37.0324,41.6276 28.4324,37.0876 28.4324,31.4876 C28.4324,25.8876 37.0324,21.3476 47.6384,21.3476 C58.2444,21.3476 66.8444,25.8876 66.8444,31.4876 Z"></path><path d="M66.8444,19.2062 C66.8444,24.8062 58.2444,29.3462 47.6384,29.3462 C37.0324,29.3462 28.4324,24.8062 28.4324,19.2062 C28.4324,13.6062 37.0324,9.0662 47.6384,9.0662 C58.2444,9.0662 66.8444,13.6062 66.8444,19.2062 Z"></path><path d="M66.8444,23.4886 C66.8444,29.0886 58.2444,33.6286 47.6384,33.6286 C37.0324,33.6286 28.4324,29.0886 28.4324,23.4886 C28.4324,17.8886 37.0324,13.3486 47.6384,13.3486 C58.2444,13.3486 66.8444,17.8886 66.8444,23.4886 Z"></path><path d="M66.8444,10.6408 C66.8444,16.2408 58.2444,20.7808 47.6384,20.7808 C37.0324,20.7808 28.4324,16.2408 28.4324,10.6408 C28.4324,5.0408 37.0324,0.5008 47.6384,0.5008 C58.2444,0.5008 66.8444,5.0408 66.8444,10.6408 Z"></path><path d="M66.8444 14.923C66.8444 20.523 58.2444 25.063 47.6384 25.063 37.0324 25.063 28.4324 20.523 28.4324 14.923 28.4324 9.323 37.0324 4.783 47.6384 4.783 58.2444 4.783 66.8444 9.323 66.8444 14.923zM38.9128 49.4974C38.9128 55.0974 30.3128 59.6374 19.7048 59.6374 9.0988 59.6374.5008 55.0974.5008 49.4974.5008 43.8974 9.0988 39.3574 19.7048 39.3574 30.3128 39.3574 38.9128 43.8974 38.9128 49.4974z"></path><path d="M38.9128,53.7796 C38.9128,59.3796 30.3128,63.9196 19.7048,63.9196 C9.0988,63.9196 0.5008,59.3796 0.5008,53.7796 C0.5008,48.1796 9.0988,43.6396 19.7048,43.6396 C30.3128,43.6396 38.9128,48.1796 38.9128,53.7796 Z"></path><path d="M38.9128,41.4974 C38.9128,47.0974 30.3128,51.6374 19.7048,51.6374 C9.0988,51.6374 0.5008,47.0974 0.5008,41.4974 C0.5008,35.8974 9.0988,31.3574 19.7048,31.3574 C30.3128,31.3574 38.9128,35.8974 38.9128,41.4974 Z"></path><path d="M38.9128,45.7806 C38.9128,51.3806 30.3128,55.9206 19.7048,55.9206 C9.0988,55.9206 0.5008,51.3806 0.5008,45.7806 C0.5008,40.1806 9.0988,35.6406 19.7048,35.6406 C30.3128,35.6406 38.9128,40.1806 38.9128,45.7806 Z"></path><path d="M38.9128,33.4982 C38.9128,39.0982 30.3128,43.6382 19.7048,43.6382 C9.0988,43.6382 0.5008,39.0982 0.5008,33.4982 C0.5008,27.8982 9.0988,23.3582 19.7048,23.3582 C30.3128,23.3582 38.9128,27.8982 38.9128,33.4982 Z"></path><path d="M38.9128 37.7814C38.9128 43.3814 30.3128 47.9214 19.7048 47.9214 9.0988 47.9214.5008 43.3814.5008 37.7814.5008 32.1814 9.0988 27.6414 19.7048 27.6414 30.3128 27.6414 38.9128 32.1814 38.9128 37.7814zM97.319 49.008C97.319 54.608 88.719 59.148 78.113 59.148 67.507 59.148 58.907 54.608 58.907 49.008 58.907 43.408 67.507 38.868 78.113 38.868 88.719 38.868 97.319 43.408 97.319 49.008z"></path><path d="M97.319,53.2912 C97.319,58.8912 88.719,63.4312 78.113,63.4312 C67.507,63.4312 58.907,58.8912 58.907,53.2912 C58.907,47.6912 67.507,43.1512 78.113,43.1512 C88.719,43.1512 97.319,47.6912 97.319,53.2912 Z"></path><path d="M97.319,41.009 C97.319,46.609 88.719,51.149 78.113,51.149 C67.507,51.149 58.907,46.609 58.907,41.009 C58.907,35.409 67.507,30.869 78.113,30.869 C88.719,30.869 97.319,35.409 97.319,41.009 Z"></path><path d="M97.319,45.2922 C97.319,50.8922 88.719,55.4322 78.113,55.4322 C67.507,55.4322 58.907,50.8922 58.907,45.2922 C58.907,39.6922 67.507,35.1522 78.113,35.1522 C88.719,35.1522 97.319,39.6922 97.319,45.2922 Z"></path></g></svg> 