<?xml version="1.0" encoding="UTF-8"?> <svg xmlns="http://www.w3.org/2000/svg" data-name="Logo Finergreen" viewBox="0 0 77.42 77.06"><path d="M75.68 1.12S1.13 2.31 1.13 45.47s49.38 34.28 64.16 11.32S75.68 1.12 75.68 1.12z" fill="#c0ab77"></path><path d="M66.72 12.6c-9.43-2.6-17.55 5.08-20.2 7.67-8.52 8.35-18 27.47-23.43 34.43-4.76 6.15-9.4 10.56-14.94 12.3 16 .76 25.05-11.87 32.89-25.18 13.38-.83 14.49-8.4 14.49-8.4a28.14 28.14 0 01-6.31 1c-1.24.09-2.79.19-4.1.32 6.29-10.81 12.39-20.56 21.6-22.14z" fill="#1f4354"></path></svg> 