<?xml version="1.0" standalone="no"?>
<!DOCTYPE svg PUBLIC "-//W3C//DTD SVG 20010904//EN"
 "http://www.w3.org/TR/2001/REC-SVG-20010904/DTD/svg10.dtd">
<svg version="1.0" xmlns="http://www.w3.org/2000/svg"
 width="750.000000pt" height="1234.000000pt" viewBox="0 0 750.000000 1234.000000"
 preserveAspectRatio="xMidYMid meet">

<g transform="translate(0.000000,1234.000000) scale(0.100000,-0.100000)"
fill="#000000" stroke="none">
<path d="M3297 7243 l-228 -3 3 -43 c2 -29 7 -41 17 -39 7 1 22 0 32 -3 18 -6
19 -18 19 -186 l0 -179 -35 0 c-35 0 -35 0 -35 -45 l0 -45 230 0 230 0 0 93 0
92 -45 -3 -45 -4 0 -44 0 -44 -100 0 -100 0 0 65 0 65 90 0 90 0 0 45 0 45
-90 0 -90 0 0 70 0 70 100 0 100 0 0 -45 0 -45 45 0 45 0 0 95 c0 52 -1 94 -2
93 -2 -2 -106 -4 -231 -5z"/>
<path d="M2420 7200 c0 -25 5 -40 13 -41 6 -1 21 -2 32 -3 19 -1 20 -9 23
-183 l2 -182 -32 -3 c-31 -3 -33 -6 -36 -45 l-3 -43 120 0 121 0 0 45 c0 45 0
45 -35 45 -35 0 -35 0 -35 45 l0 45 53 0 c52 0 54 -1 92 -51 32 -42 38 -58 36
-90 l-2 -39 106 0 105 0 0 45 0 45 -47 1 c-46 0 -50 3 -89 52 l-42 53 35 22
c50 33 73 77 73 141 0 72 -29 122 -90 155 -46 25 -53 26 -224 26 l-176 0 0
-40z m349 -65 c32 -16 41 -33 41 -78 0 -63 -39 -87 -142 -87 l-78 0 0 90 0 90
75 0 c47 0 87 -6 104 -15z"/>
<path d="M3640 7200 c0 -39 3 -43 42 -43 15 0 93 -150 205 -395 l33 -73 46 3
47 3 101 216 c56 119 107 224 115 233 8 9 23 15 35 14 18 -3 21 3 24 40 l3 42
-136 0 -136 0 3 -42 c3 -43 3 -43 39 -40 21 2 40 -1 43 -6 6 -10 -126 -302
-139 -305 -7 -2 -145 287 -145 303 0 4 19 7 43 6 l42 -1 3 43 3 42 -135 0
-136 0 0 -40z"/>
<path d="M4432 7198 c3 -42 4 -43 36 -40 21 2 32 -1 32 -9 0 -7 -28 -71 -61
-143 -34 -72 -70 -150 -81 -173 -15 -32 -26 -43 -46 -45 -24 -3 -27 -8 -30
-45 l-3 -43 115 0 116 0 0 45 c0 44 -1 45 -31 45 -26 0 -30 3 -24 18 4 9 10
25 12 35 5 15 20 17 127 17 l122 0 17 -35 17 -35 -40 0 -40 0 0 -45 0 -45 126
0 125 0 -3 43 c-3 39 -5 42 -34 45 -29 3 -35 10 -70 85 -21 45 -60 129 -87
187 -27 58 -56 122 -64 143 l-15 37 -110 0 -109 0 3 -42z m238 -244 c0 -2 -34
-4 -76 -4 -57 0 -75 3 -71 13 3 6 20 45 38 86 l33 74 38 -83 c21 -45 38 -84
38 -86z"/>
<path d="M3896 4983 c-16 -52 -46 -256 -41 -274 17 -52 94 -61 149 -18 30 24
50 89 41 136 -8 43 -58 69 -100 53 -15 -6 -29 -10 -31 -10 -3 0 -2 29 1 65 5
43 4 65 -3 65 -6 0 -13 -8 -16 -17z m110 -148 c35 -53 -13 -145 -75 -145 -39
0 -53 25 -45 85 11 77 85 114 120 60z"/>
<path d="M4127 4978 c-18 -79 -48 -280 -43 -293 3 -8 17 -15 32 -15 26 0 26 1
10 19 -16 18 -16 25 3 138 12 65 24 130 27 146 7 34 -21 39 -29 5z"/>
<path d="M2310 4972 c-24 -11 -37 -27 -44 -49 -12 -46 10 -75 78 -103 40 -16
58 -29 62 -45 19 -75 -79 -115 -146 -59 -34 29 -45 27 -35 -6 8 -24 60 -50
100 -50 49 0 95 27 111 65 22 53 4 83 -71 120 -48 24 -61 35 -63 57 -6 52 72
77 121 38 23 -18 47 -26 47 -16 0 32 -50 66 -97 66 -15 0 -44 -8 -63 -18z"/>
<path d="M4694 4919 l-59 -72 -30 66 c-16 37 -36 67 -42 67 -20 0 -16 -19 18
-90 32 -67 33 -91 13 -187 -5 -26 -3 -33 9 -33 18 0 23 14 33 83 7 49 16 66
93 162 31 39 41 59 34 66 -8 8 -29 -11 -69 -62z"/>
<path d="M3320 4945 c0 -8 7 -15 15 -15 8 0 15 7 15 15 0 8 -7 15 -15 15 -8 0
-15 -7 -15 -15z"/>
<path d="M2967 4933 c-4 -3 -7 -16 -7 -29 0 -14 -8 -24 -22 -28 -22 -6 -22 -7
-5 -20 15 -12 16 -20 8 -57 -16 -70 -14 -117 7 -128 11 -6 23 -6 33 0 12 8 11
11 -3 20 -21 12 -22 38 -7 109 8 38 15 50 29 50 27 0 36 20 11 27 -15 4 -21
13 -21 34 0 28 -9 37 -23 22z"/>
<path d="M2771 4877 c-58 -30 -54 -86 9 -111 45 -18 59 -39 40 -61 -16 -20
-60 -19 -88 1 -27 18 -41 11 -26 -13 22 -35 107 -39 139 -6 8 8 15 28 15 44 0
24 -7 32 -50 54 -54 28 -63 49 -26 66 18 8 30 7 53 -5 29 -15 43 -13 43 6 0 9
-61 38 -77 38 -4 0 -19 -6 -32 -13z"/>
<path d="M3115 4876 c-41 -18 -61 -43 -74 -92 -14 -52 0 -97 35 -113 32 -14
43 -14 77 3 15 8 27 11 27 5 0 -16 28 -10 34 9 3 9 10 46 16 82 6 36 13 75 15
87 4 19 1 22 -22 21 -16 -1 -39 2 -53 5 -14 4 -38 1 -55 -7z m76 -26 c22 -12
23 -21 8 -74 -21 -77 -91 -112 -124 -62 -13 20 -14 32 -5 65 17 64 72 97 121
71z"/>
<path d="M3458 4876 c-16 -8 -28 -11 -28 -5 0 5 -6 9 -14 9 -9 0 -17 -21 -25
-62 -24 -144 -24 -148 -9 -148 11 0 19 21 27 75 13 80 39 115 86 115 41 0 48
-21 34 -105 -12 -74 -10 -93 9 -81 13 8 35 151 27 176 -6 20 -41 40 -68 40 -7
0 -24 -7 -39 -14z"/>
<path d="M3695 4882 c-37 -13 -64 -38 -80 -75 -22 -54 -19 -94 10 -122 28 -29
54 -31 95 -10 17 9 30 11 30 5 0 -5 7 -10 15 -10 9 0 16 14 20 38 4 20 11 59
16 85 14 73 12 85 -13 84 -13 0 -34 2 -48 6 -14 3 -34 2 -45 -1z m68 -34 c14
-11 15 -20 6 -60 -12 -55 -48 -98 -83 -98 -52 0 -70 51 -40 115 23 49 81 70
117 43z"/>
<path d="M4832 4875 c-60 -26 -91 -143 -51 -191 35 -43 135 -18 163 41 22 45
21 118 -1 137 -27 24 -74 29 -111 13z m79 -25 c42 -23 14 -143 -36 -156 -65
-16 -95 22 -75 96 16 59 63 85 111 60z"/>
<path d="M5308 4874 c-16 -8 -28 -10 -28 -4 0 5 -7 10 -15 10 -8 0 -15 -2 -15
-4 0 -2 -7 -40 -15 -83 -18 -96 -19 -126 -2 -121 6 3 18 35 24 73 14 76 31
101 75 110 16 4 27 12 25 18 -5 17 -20 17 -49 1z"/>
<path d="M5423 4875 c-36 -16 -53 -56 -33 -80 7 -8 32 -24 56 -35 47 -20 56
-43 25 -60 -28 -14 -58 -12 -85 6 -29 18 -43 3 -18 -18 27 -25 60 -30 97 -18
68 23 72 87 7 113 -53 21 -67 40 -47 61 19 19 35 20 70 4 30 -13 45 -3 24 17
-22 22 -61 26 -96 10z"/>
<path d="M2501 4817 c-17 -99 -15 -124 14 -143 34 -22 93 -13 121 20 31 35 58
192 32 184 -7 -3 -20 -40 -28 -83 -13 -67 -19 -82 -41 -94 -16 -9 -36 -12 -54
-7 -27 7 -28 8 -22 64 4 31 9 72 13 90 5 25 3 32 -9 32 -11 0 -18 -18 -26 -63z"/>
<path d="M3300 4823 c-6 -32 -13 -71 -16 -88 -3 -16 -8 -38 -10 -47 -4 -12 0
-18 10 -18 17 0 21 11 36 100 6 36 13 75 15 88 4 15 1 22 -9 22 -10 0 -18 -19
-26 -57z"/>
<path d="M4200 4815 c-14 -77 -9 -108 22 -122 23 -10 23 -10 -8 -26 -36 -19
-48 -48 -29 -74 10 -13 26 -18 60 -17 72 1 91 27 115 154 23 122 25 153 8 148
-7 -3 -18 -33 -25 -69 -18 -87 -59 -121 -108 -86 -18 14 -18 28 1 125 5 25 3
32 -9 32 -10 0 -18 -19 -27 -65z m115 -155 c-8 -36 -44 -63 -77 -58 -42 6 -28
40 27 70 27 15 51 25 53 23 2 -2 1 -18 -3 -35z"/>
<path d="M5010 4823 c-6 -32 -13 -70 -16 -85 -4 -21 1 -34 21 -54 23 -23 33
-26 67 -21 23 3 49 14 60 24 19 20 57 177 45 189 -14 14 -26 -11 -37 -77 -14
-81 -35 -109 -80 -109 -42 0 -50 27 -33 114 7 39 13 72 13 74 0 1 -6 2 -14 2
-10 0 -18 -20 -26 -57z"/>
</g>
</svg>
