<?xml version="1.0" standalone="no"?>
<!DOCTYPE svg PUBLIC "-//W3C//DTD SVG 20010904//EN"
 "http://www.w3.org/TR/2001/REC-SVG-20010904/DTD/svg10.dtd">
<svg version="1.0" xmlns="http://www.w3.org/2000/svg"
 width="1024.000000pt" height="1024.000000pt" viewBox="0 0 1024.000000 1024.000000"
 preserveAspectRatio="xMidYMid meet">
<metadata>
Created by potrace 1.11, written by Peter Selinger 2001-2013
</metadata>
<g transform="translate(0.000000,1024.000000) scale(0.100000,-0.100000)"
fill="#000000" stroke="none">
<path d="M9876 10083 c-1 -1 -62 -5 -136 -8 -74 -3 -160 -7 -190 -10 -30 -2
-98 -7 -150 -10 -52 -4 -111 -8 -130 -10 -19 -2 -78 -7 -130 -11 -160 -11
-275 -21 -339 -30 -18 -2 -63 -7 -100 -9 -36 -3 -82 -8 -101 -10 -19 -3 -57
-7 -85 -10 -27 -3 -66 -7 -85 -10 -19 -2 -60 -7 -90 -10 -30 -4 -66 -8 -80
-10 -14 -2 -50 -6 -80 -10 -30 -4 -66 -8 -80 -10 -14 -2 -49 -7 -79 -10 -30
-4 -63 -9 -75 -11 -12 -2 -41 -6 -66 -9 -25 -3 -56 -7 -70 -10 -14 -2 -45 -7
-70 -10 -25 -3 -56 -8 -70 -10 -29 -5 -68 -11 -125 -20 -23 -3 -52 -7 -65 -10
-13 -3 -42 -7 -65 -10 -22 -3 -51 -8 -65 -10 -14 -3 -36 -8 -50 -10 -14 -3
-52 -10 -85 -15 -33 -5 -69 -12 -80 -14 -11 -2 -38 -6 -60 -10 -22 -4 -119
-22 -215 -41 -96 -19 -188 -37 -205 -39 -16 -3 -93 -20 -170 -36 -77 -17 -151
-33 -165 -36 -14 -3 -74 -16 -135 -30 -60 -14 -117 -27 -125 -29 -15 -3 -481
-122 -510 -130 -8 -2 -55 -15 -105 -29 -49 -13 -137 -39 -195 -56 -58 -18
-109 -33 -115 -35 -5 -1 -17 -5 -25 -8 -8 -3 -34 -11 -57 -17 -67 -17 -585
-191 -615 -206 -15 -8 -30 -14 -33 -13 -6 1 -27 -6 -120 -42 -33 -13 -62 -24
-65 -25 -3 0 -14 -4 -25 -9 -11 -4 -75 -30 -142 -56 -285 -113 -522 -220 -823
-371 -212 -107 -257 -131 -395 -210 -38 -22 -86 -49 -105 -60 -146 -84 -542
-342 -548 -360 -2 -4 -10 -8 -17 -8 -7 0 -15 -3 -17 -8 -1 -4 -37 -32 -78 -62
-41 -30 -84 -62 -95 -72 -11 -9 -61 -50 -112 -90 -193 -156 -486 -431 -603
-568 -12 -14 -43 -49 -68 -79 -80 -91 -93 -107 -157 -191 -28 -36 -52 -67 -55
-70 -31 -29 -238 -346 -305 -465 -233 -418 -411 -914 -471 -1315 -3 -19 -7
-42 -10 -51 -2 -9 -7 -34 -9 -55 -3 -22 -7 -52 -9 -69 -5 -28 -10 -64 -20
-155 -13 -110 -20 -294 -20 -515 1 -222 3 -297 18 -515 4 -53 13 -144 21 -205
2 -16 7 -59 10 -95 4 -36 9 -67 10 -70 2 -3 7 -33 10 -65 4 -33 9 -63 11 -66
2 -3 6 -24 8 -45 4 -31 29 -147 71 -324 22 -98 54 -208 91 -315 25 -71 47
-137 49 -145 2 -8 31 -80 65 -160 93 -218 217 -445 331 -609 24 -34 51 -73 59
-85 8 -12 33 -44 55 -71 22 -27 49 -60 60 -74 75 -92 244 -266 336 -346 293
-255 657 -464 1049 -601 91 -32 253 -81 295 -90 11 -2 56 -13 100 -23 108 -26
324 -63 447 -76 29 -4 68 -8 86 -11 172 -23 713 -23 907 1 17 2 62 6 100 10
39 3 97 10 130 15 33 5 80 12 105 15 115 15 447 81 552 110 27 7 60 15 86 21
132 27 643 196 797 264 22 10 92 39 155 66 488 206 1050 544 1470 884 99 81
103 84 215 183 135 119 361 351 475 487 25 30 52 61 61 70 28 29 214 283 263
360 27 41 59 91 71 110 44 67 105 170 105 177 0 3 6 14 14 22 7 9 27 41 43 71
17 30 41 75 55 100 44 78 182 351 225 445 23 50 56 122 73 160 31 66 179 428
184 450 2 6 8 24 15 40 34 81 187 553 235 725 103 363 215 859 261 1150 3 19
12 72 20 117 9 45 18 101 21 125 3 24 9 68 14 98 5 30 12 75 15 100 3 25 8 56
10 70 2 14 7 50 10 80 4 30 8 66 10 80 2 14 6 54 10 90 3 36 8 76 10 90 2 14
7 59 11 100 3 41 8 82 9 91 2 9 7 59 10 110 4 52 9 112 10 134 34 447 40 625
40 1185 0 459 -7 774 -20 898 -2 26 -7 88 -10 137 -3 50 -8 110 -10 135 -2 25
-7 74 -10 110 -8 94 -17 183 -21 200 -1 8 -3 20 -3 26 -1 7 -30 11 -82 10 -44
-1 -81 -2 -83 -3z"/>
</g>
</svg>
