<?xml version="1.0" encoding="UTF-8"?> <svg xmlns="http://www.w3.org/2000/svg" width="36" height="36"><g fill="none" fill-rule="evenodd"><path stroke="#2F677D" stroke-opacity=".504" stroke-width="2" d="M35 18c0 9.389-7.612 17-17 17-9.389 0-17-7.611-17-17S8.612 1 18 1c9.388 0 17 7.611 17 17z" opacity=".499"></path><path fill="#C0AB77" fill-rule="nonzero" d="M24.022 12.014l-9.72 9.075-3.373-3.15a1.532 1.532 0 0 0-2.063 0 1.298 1.298 0 0 0 0 1.927l4.405 4.112c.279.261.643.397 1.031.397.388 0 .752-.147 1.032-.397l10.739-10.026c.57-.533.57-1.394 0-1.926-.558-.533-1.48-.533-2.051-.012z"></path></g></svg> 