<?xml version="1.0" encoding="UTF-8"?> <svg xmlns="http://www.w3.org/2000/svg" width="70" height="48"><g fill="none" fill-rule="evenodd" opacity=".3"><path stroke="#FFF" stroke-width="2" d="M47 29.315c0 3.866-5.821 7-13 7s-13-3.134-13-7 5.821-7 13-7 13 3.134 13 7z"></path><path stroke="#FFF" stroke-width="2" d="M47 24.315c0 3.866-5.821 7-13 7s-13-3.134-13-7 5.821-7 13-7 13 3.134 13 7z"></path><path stroke="#FFF" stroke-width="2" d="M47 19.315c0 3.866-5.821 7-13 7s-13-3.134-13-7 5.821-7 13-7 13 3.134 13 7z"></path><path stroke="#FFF" stroke-width="2" d="M47 8.315c0 3.866-5.821 7-13 7s-13-3.134-13-7 5.821-7 13-7 13 3.134 13 7z"></path><path stroke="#FFF" stroke-width="2" d="M47 13.315c0 3.866-5.821 7-13 7s-13-3.134-13-7 5.821-7 13-7 13 3.134 13 7z"></path><path fill="#696767" d="M26.704 27.096A4.23 4.23 0 0027 25.564c0-4.003-5.821-7.25-13.001-7.25S1 21.562 1 25.565c0 .527.106 1.037.295 1.532A4.252 4.252 0 001 28.627c0 .454.084.897.227 1.329-.143.43-.227.873-.227 1.328 0 .525.106 1.037.295 1.532A4.25 4.25 0 001 34.346c0 .454.084.898.227 1.33-.143.43-.227.873-.227 1.326 0 .527.106 1.038.295 1.532A4.258 4.258 0 001 40.065c0 4.004 5.82 7.25 12.999 7.25 7.18 0 13.001-3.246 13.001-7.25a4.23 4.23 0 00-.296-1.531c.19-.494.296-1.005.296-1.532 0-.453-.085-.896-.227-1.327.142-.431.227-.875.227-1.33 0-.524-.106-1.036-.296-1.53.19-.494.296-1.006.296-1.53 0-.456-.085-.899-.227-1.33A4.24 4.24 0 0027 28.628c0-.526-.106-1.038-.296-1.531"></path><path stroke="#FFF" stroke-width="2" d="M27 39.315c0 3.866-5.821 7-13.001 7S1 43.18 1 39.315s5.82-7 12.999-7c7.18 0 13.001 3.134 13.001 7z"></path><path stroke="#FFF" stroke-width="2" d="M27 29.315c0 3.866-5.821 7-13.001 7S1 33.18 1 29.315s5.82-7 12.999-7c7.18 0 13.001 3.134 13.001 7z"></path><path stroke="#FFF" stroke-width="2" d="M27 34.315c0 3.866-5.821 7-13.001 7S1 38.18 1 34.315s5.82-7 12.999-7c7.18 0 13.001 3.134 13.001 7z"></path><path stroke="#FFF" stroke-width="2" d="M27 24.315c0 3.866-5.821 7-13.001 7S1 28.18 1 24.315s5.82-7 12.999-7c7.18 0 13.001 3.134 13.001 7zm42 15c0 3.866-5.821 7-13 7s-13-3.134-13-7 5.821-7 13-7 13 3.134 13 7z"></path><path stroke="#FFF" stroke-width="2" d="M69 29.315c0 3.866-5.821 7-13 7s-13-3.134-13-7 5.821-7 13-7 13 3.134 13 7z"></path><path stroke="#FFF" stroke-width="2" d="M69 34.315c0 3.866-5.821 7-13 7s-13-3.134-13-7 5.821-7 13-7 13 3.134 13 7z"></path></g></svg> 