<?xml version="1.0" encoding="UTF-8"?> <svg xmlns="http://www.w3.org/2000/svg" width="63" height="63"><g fill="none" fill-rule="evenodd" stroke="#FFF" stroke-width="2" opacity=".298"><path d="M49.297 32c0 10.217-8.283 18.5-18.5 18.5s-18.5-8.283-18.5-18.5 8.283-18.5 18.5-18.5 18.5 8.283 18.5 18.5z"></path><path d="M55.297 32c0 13.531-10.967 24.5-24.5 24.5-13.532 0-24.5-10.969-24.5-24.5s10.968-24.5 24.5-24.5c13.533 0 24.5 10.969 24.5 24.5z"></path><path d="M61.297 31.5c0 16.568-13.432 30-30 30-16.568 0-30-13.432-30-30 0-16.568 13.432-30 30-30 16.568 0 30 13.432 30 30z"></path><path d="M44.297 31.5c0 7.18-5.82 13-13 13-7.178 0-13-5.82-13-13s5.822-13 13-13c7.18 0 13 5.82 13 13z"></path><path d="M39.297 31.5a8 8 0 11-16 0 8 8 0 0116 0z"></path><path d="M34.297 32a3.5 3.5 0 11-7 0 3.5 3.5 0 017 0z"></path></g></svg> 